<svg width="156" height="20" viewBox="0 0 156 20" fill="none" xmlns="http://www.w3.org/2000/svg">
<path d="M0.761364 0.454545H2.86364L7.80682 12.5284H7.97727L12.9205 0.454545H15.0227V15H13.375V3.94886H13.233L8.6875 15H7.09659L2.55114 3.94886H2.40909V15H0.761364V0.454545ZM19.1509 15H17.3043L22.6452 0.454545H24.4634L29.8043 15H27.9577L23.6112 2.75568H23.4975L19.1509 15ZM19.8327 9.31818H27.2759V10.8807H19.8327V9.31818ZM32.6665 15H30.82L36.1609 0.454545H37.979L43.32 15H41.4734L37.1268 2.75568H37.0131L32.6665 15ZM33.3484 9.31818H40.7915V10.8807H33.3484V9.31818ZM53.5401 4.09091C53.4549 3.37121 53.1093 2.8125 52.5032 2.41477C51.8971 2.01705 51.1538 1.81818 50.2731 1.81818C49.6291 1.81818 49.0657 1.92235 48.5827 2.13068C48.1045 2.33901 47.7305 2.62547 47.4606 2.99006C47.1954 3.35464 47.0629 3.76894 47.0629 4.23295C47.0629 4.62121 47.1552 4.95502 47.3398 5.23438C47.5292 5.509 47.7707 5.73864 48.0643 5.9233C48.3578 6.10322 48.6656 6.25237 48.9876 6.37074C49.3095 6.48437 49.6055 6.5767 49.8754 6.64773L51.3526 7.04545C51.7314 7.14489 52.1528 7.2822 52.6168 7.45739C53.0856 7.63258 53.533 7.87169 53.9592 8.17472C54.39 8.47301 54.7451 8.85653 55.0245 9.32528C55.3039 9.79403 55.4435 10.3693 55.4435 11.0511C55.4435 11.8371 55.2376 12.5473 54.8256 13.1818C54.4184 13.8163 53.8219 14.3205 53.0359 14.6946C52.2546 15.0687 51.3053 15.2557 50.1879 15.2557C49.1462 15.2557 48.2442 15.0876 47.4819 14.7514C46.7243 14.4152 46.1277 13.9465 45.6921 13.3452C45.2612 12.7438 45.0174 12.0455 44.9606 11.25H46.7788C46.8261 11.7992 47.0108 12.2538 47.3327 12.6136C47.6594 12.9687 48.0714 13.2339 48.5685 13.4091C49.0704 13.5795 49.6102 13.6648 50.1879 13.6648C50.8602 13.6648 51.4639 13.5559 51.9989 13.3381C52.534 13.1155 52.9577 12.8078 53.2702 12.4148C53.5827 12.017 53.739 11.553 53.739 11.0227C53.739 10.5398 53.604 10.1468 53.3342 9.84375C53.0643 9.54072 52.7092 9.29451 52.2688 9.10511C51.8285 8.91572 51.3526 8.75 50.8413 8.60795L49.0515 8.09659C47.9151 7.76989 47.0155 7.3035 46.3526 6.69744C45.6897 6.09138 45.3583 5.2983 45.3583 4.31818C45.3583 3.50379 45.5785 2.79356 46.0188 2.1875C46.4639 1.5767 47.0605 1.10322 47.8086 0.767045C48.5614 0.426136 49.4019 0.255681 50.3299 0.255681C51.2674 0.255681 52.1007 0.423768 52.8299 0.759943C53.5591 1.09138 54.1367 1.54593 54.5629 2.12358C54.9937 2.70123 55.221 3.35701 55.2447 4.09091H53.5401Z" fill="#FFF700"/>
<path d="M71.919 4.09091C71.8338 3.37121 71.4882 2.8125 70.8821 2.41477C70.276 2.01705 69.5327 1.81818 68.652 1.81818C68.008 1.81818 67.4446 1.92235 66.9616 2.13068C66.4834 2.33901 66.1094 2.62547 65.8395 2.99006C65.5743 3.35464 65.4418 3.76894 65.4418 4.23295C65.4418 4.62121 65.5341 4.95502 65.7188 5.23438C65.9081 5.509 66.1496 5.73864 66.4432 5.9233C66.7367 6.10322 67.0445 6.25237 67.3665 6.37074C67.6884 6.48437 67.9844 6.5767 68.2543 6.64773L69.7315 7.04545C70.1103 7.14489 70.5317 7.2822 70.9957 7.45739C71.4645 7.63258 71.9119 7.87169 72.3381 8.17472C72.7689 8.47301 73.1241 8.85653 73.4034 9.32528C73.6828 9.79403 73.8224 10.3693 73.8224 11.0511C73.8224 11.8371 73.6165 12.5473 73.2045 13.1818C72.7973 13.8163 72.2008 14.3205 71.4148 14.6946C70.6335 15.0687 69.6842 15.2557 68.5668 15.2557C67.5251 15.2557 66.6231 15.0876 65.8608 14.7514C65.1032 14.4152 64.5066 13.9465 64.071 13.3452C63.6402 12.7438 63.3963 12.0455 63.3395 11.25H65.1577C65.205 11.7992 65.3897 12.2538 65.7116 12.6136C66.0384 12.9687 66.4503 13.2339 66.9474 13.4091C67.4493 13.5795 67.9891 13.6648 68.5668 13.6648C69.2391 13.6648 69.8428 13.5559 70.3778 13.3381C70.9129 13.1155 71.3366 12.8078 71.6491 12.4148C71.9616 12.017 72.1179 11.553 72.1179 11.0227C72.1179 10.5398 71.983 10.1468 71.7131 9.84375C71.4432 9.54072 71.0881 9.29451 70.6477 9.10511C70.2074 8.91572 69.7315 8.75 69.2202 8.60795L67.4304 8.09659C66.294 7.76989 65.3944 7.3035 64.7315 6.69744C64.0687 6.09138 63.7372 5.2983 63.7372 4.31818C63.7372 3.50379 63.9574 2.79356 64.3977 2.1875C64.8428 1.5767 65.4394 1.10322 66.1875 0.767045C66.9403 0.426136 67.7808 0.255681 68.7088 0.255681C69.6463 0.255681 70.4796 0.423768 71.2088 0.759943C71.938 1.09138 72.5156 1.54593 72.9418 2.12358C73.3726 2.70123 73.5999 3.35701 73.6236 4.09091H71.919ZM77.5707 19.0909C77.2866 19.0909 77.0333 19.0672 76.8107 19.0199C76.5882 18.9773 76.4343 18.9347 76.3491 18.892L76.7752 17.4148C77.1824 17.5189 77.5423 17.5568 77.8548 17.5284C78.1673 17.5 78.4442 17.3603 78.6857 17.1094C78.9319 16.8632 79.1568 16.4631 79.3604 15.9091L79.6729 15.0568L75.6388 4.09091H77.457L80.4684 12.7841H80.582L83.5934 4.09091H85.4116L80.7809 16.5909C80.5726 17.1544 80.3145 17.6207 80.0067 17.9901C79.699 18.3641 79.3415 18.6411 78.9343 18.821C78.5318 19.0009 78.0773 19.0909 77.5707 19.0909ZM95.3512 6.53409L93.8455 6.96023C93.7508 6.70928 93.6112 6.46544 93.4265 6.22869C93.2466 5.98722 93.0004 5.78835 92.6879 5.6321C92.3754 5.47585 91.9753 5.39773 91.4876 5.39773C90.82 5.39773 90.2636 5.55161 89.8185 5.85938C89.3782 6.16241 89.158 6.5483 89.158 7.01705C89.158 7.43371 89.3095 7.76278 89.6126 8.00426C89.9156 8.24574 90.3891 8.44697 91.033 8.60795L92.6523 9.00568C93.6277 9.24242 94.3545 9.60464 94.8327 10.0923C95.311 10.5753 95.5501 11.1979 95.5501 11.9602C95.5501 12.5852 95.3701 13.1439 95.0103 13.6364C94.6552 14.1288 94.158 14.517 93.5188 14.8011C92.8796 15.0852 92.1362 15.2273 91.2887 15.2273C90.176 15.2273 89.2551 14.9858 88.5259 14.5028C87.7968 14.0199 87.3351 13.3144 87.141 12.3864L88.7319 11.9886C88.8834 12.5758 89.1699 13.0161 89.5913 13.3097C90.0174 13.6032 90.5737 13.75 91.2603 13.75C92.0415 13.75 92.6618 13.5843 93.1211 13.2528C93.5851 12.9167 93.8171 12.5142 93.8171 12.0455C93.8171 11.6667 93.6845 11.3494 93.4194 11.0938C93.1542 10.8333 92.747 10.6392 92.1978 10.5114L90.3796 10.0852C89.3806 9.84848 88.6467 9.48153 88.1779 8.98438C87.7139 8.48248 87.4819 7.85511 87.4819 7.10227C87.4819 6.48674 87.6547 5.94223 88.0004 5.46875C88.3507 4.99527 88.8266 4.62358 89.4279 4.35369C90.034 4.08381 90.7205 3.94886 91.4876 3.94886C92.5671 3.94886 93.4147 4.18561 94.0302 4.65909C94.6504 5.13258 95.0908 5.75758 95.3512 6.53409ZM102.817 4.09091V5.51136H97.1641V4.09091H102.817ZM98.8118 1.47727H100.488V11.875C100.488 12.3485 100.557 12.7036 100.694 12.9403C100.836 13.1723 101.016 13.3286 101.234 13.4091C101.456 13.4848 101.691 13.5227 101.937 13.5227C102.121 13.5227 102.273 13.5133 102.391 13.4943C102.51 13.4706 102.604 13.4517 102.675 13.4375L103.016 14.9432C102.903 14.9858 102.744 15.0284 102.54 15.071C102.337 15.1184 102.079 15.142 101.766 15.142C101.293 15.142 100.829 15.0402 100.374 14.8366C99.9245 14.633 99.5504 14.3229 99.2521 13.9062C98.9586 13.4896 98.8118 12.964 98.8118 12.3295V1.47727ZM109.795 15.2273C108.744 15.2273 107.838 14.9953 107.075 14.5312C106.318 14.0625 105.733 13.4091 105.321 12.571C104.914 11.7282 104.71 10.7481 104.71 9.63068C104.71 8.51326 104.914 7.52841 105.321 6.67614C105.733 5.81913 106.306 5.15152 107.04 4.6733C107.778 4.19034 108.64 3.94886 109.625 3.94886C110.193 3.94886 110.754 4.04356 111.308 4.23295C111.862 4.42235 112.366 4.73011 112.821 5.15625C113.276 5.57765 113.638 6.13636 113.908 6.83239C114.178 7.52841 114.312 8.38542 114.312 9.40341V10.1136H105.903V8.66477H112.608C112.608 8.04924 112.485 7.5 112.239 7.01705C111.997 6.53409 111.652 6.15294 111.202 5.87358C110.757 5.59422 110.231 5.45455 109.625 5.45455C108.957 5.45455 108.38 5.62026 107.892 5.9517C107.409 6.27841 107.037 6.70455 106.777 7.23011C106.517 7.75568 106.386 8.31913 106.386 8.92045V9.88636C106.386 10.7102 106.528 11.4086 106.812 11.9815C107.101 12.5497 107.501 12.983 108.013 13.2812C108.524 13.5748 109.118 13.7216 109.795 13.7216C110.236 13.7216 110.634 13.66 110.989 13.5369C111.348 13.4091 111.659 13.2197 111.919 12.9688C112.179 12.7131 112.381 12.3958 112.523 12.017L114.142 12.4716C113.972 13.0208 113.685 13.5038 113.283 13.9205C112.88 14.3324 112.383 14.6544 111.791 14.8864C111.199 15.1136 110.534 15.2273 109.795 15.2273ZM116.862 15V4.09091H118.482V5.79545H118.624C118.851 5.21307 119.218 4.76089 119.724 4.43892C120.231 4.11222 120.839 3.94886 121.55 3.94886C122.269 3.94886 122.868 4.11222 123.347 4.43892C123.83 4.76089 124.206 5.21307 124.476 5.79545H124.589C124.869 5.23201 125.288 4.78456 125.847 4.45312C126.405 4.11695 127.075 3.94886 127.857 3.94886C128.832 3.94886 129.63 4.25426 130.25 4.86506C130.87 5.47112 131.18 6.41572 131.18 7.69886V15H129.504V7.69886C129.504 6.89394 129.284 6.31866 128.844 5.97301C128.403 5.62737 127.885 5.45455 127.288 5.45455C126.521 5.45455 125.927 5.68655 125.506 6.15057C125.084 6.60985 124.874 7.19223 124.874 7.89773V15H123.169V7.52841C123.169 6.90814 122.968 6.40862 122.565 6.02983C122.163 5.64631 121.644 5.45455 121.01 5.45455C120.574 5.45455 120.167 5.57055 119.788 5.80256C119.414 6.03456 119.111 6.35653 118.879 6.76847C118.652 7.17566 118.538 7.64678 118.538 8.18182V15H116.862Z" fill="white"/>
<path d="M141.859 0.454545V15H140.097V0.454545H141.859ZM144.595 2.01705V0.454545H155.504V2.01705H150.93V15H149.169V2.01705H144.595Z" fill="#F49F00"/>
</svg>
